PathFileType	4	(X/Y/Z)	s03c0402.trc
DataRate	CameraRate	NumFrames	NumMarkers	Units	OrigDataRate	OrigDataStartFrame	OrigNumFrames
200	200	7	50	mm	200	1250	2000
Frame#	Time	racr			lacr			c7			jug			rlel			rdr			llel			ldr			s2			lic			ric			lasi			rasi			rpsi			lpsi			rgt			lgt			rth1			rth2			rth3			rth4			rlfc			rmfc			rsh1			rsh2			rsh3			rsh4			rlmal			rcal			rtoe			rmt5			rmt1			lth1			lth2			lth4			lth3			llfc			lmfc			lsh1			lsh2			lsh3			lsh4			llmal			lcal			ltoe			lmt1			lmt5			SBIKE			LBIKE			RBIKE			
		X1	Y1	Z1	X2	Y2	Z2	X3	Y3	Z3	X4	Y4	Z4	X5	Y5	Z5	X6	Y6	Z6	X7	Y7	Z7	X8	Y8	Z8	X9	Y9	Z9	X10	Y10	Z10	X11	Y11	Z11	X12	Y12	Z12	X13	Y13	Z13	X14	Y14	Z14	X15	Y15	Z15	X16	Y16	Z16	X17	Y17	Z17	X18	Y18	Z18	X19	Y19	Z19	X20	Y20	Z20	X21	Y21	Z21	X22	Y22	Z22	X23	Y23	Z23	X24	Y24	Z24	X25	Y25	Z25	X26	Y26	Z26	X27	Y27	Z27	X28	Y28	Z28	X29	Y29	Z29	X30	Y30	Z30	X31	Y31	Z31	X32	Y32	Z32	X33	Y33	Z33	X34	Y34	Z34	X35	Y35	Z35	X36	Y36	Z36	X37	Y37	Z37	X38	Y38	Z38	X39	Y39	Z39	X40	Y40	Z40	X41	Y41	Z41	X42	Y42	Z42	X43	Y43	Z43	X44	Y44	Z44	X45	Y45	Z45	X46	Y46	Z46	X47	Y47	Z47	X48	Y48	Z48	X49	Y49	Z49	X50	Y50	Z50	
1250	6.2500	826.674511	1360.055487	-88.996430	806.313187	1389.070082	-411.487550	777.117848	1468.557971	-237.109023	749.313246	1292.647492	-248.170113	632.844995	1203.797964	92.921117	740.804287	977.953346	-4.217667	642.836420	1212.262905	-577.842182	729.952486	970.309259	-475.343585	201.817760	1293.860584	-243.068990	384.749047	1295.044748	-417.897819	366.451886	1282.717625	-50.854530	387.296902	1216.361933	-372.497937	380.716365	1209.998516	-96.583119	237.087603	1335.925166	-193.421094	245.834240	1337.835161	-279.412642	283.905449	1184.360829	-44.831544	323.168448	1198.171650	-440.220210	338.688511	1026.635005	-27.712714	396.763543	959.406988	-27.307451	416.908981	876.647787	-37.320249	429.515122	976.290244	-32.350910	457.988023	756.926898	-65.817743	472.229216	743.563680	-179.234144	394.627962	600.483049	-37.229326	386.326414	512.385318	-50.401098	334.208403	440.941841	-53.521644	415.886584	504.151243	-74.249668	275.938505	323.435156	-72.438636	206.400614	300.197426	-105.554125	499.904686	196.143214	-120.253907	383.835749	217.699458	-44.070477	410.161536	230.493860	-158.735443	406.501571	1073.790928	-465.415274	470.500988	1015.643013	-471.096672	499.194417	1032.672255	-457.095059	496.511419	930.495691	-478.281666	557.303132	816.715229	-470.584559	551.002755	793.935766	-345.001650	402.076967	731.629664	-486.916881	345.676114	671.278434	-464.018169	259.409772	644.753574	-454.120112	364.994610	645.588392	-442.484494	149.480413	587.263716	-429.051473	82.832083	616.865933	-379.993474	226.077671	345.035967	-355.677981	175.297718	427.595083	-319.189231	148.363270	430.222539	-435.969109	-219.224920	944.231013	-235.164483	-14.328624	80.883014	-437.195445	-14.377354	80.468327	-36.925994	
1251	6.2550	827.218336	1360.816655	-90.863908	805.396217	1390.082966	-413.796117	776.350713	1469.566034	-239.150778	749.676225	1293.169759	-250.419829	634.019032	1204.443309	91.940512	741.502205	977.530297	-3.159968	642.393367	1211.883158	-579.364813	729.924107	970.295835	-475.640407	202.020571	1292.260738	-241.132156	383.574541	1294.126063	-416.264805	367.893148	1281.211412	-50.380389	387.386181	1216.093483	-371.509281	382.440315	1208.584494	-96.135979	237.427840	1334.217148	-191.928514	246.265104	1338.046669	-270.561453	283.509776	1181.512406	-44.271782	324.172905	1199.363438	-439.349351	335.568495	1023.357165	-27.477357	392.151559	954.859975	-27.118835	410.490860	871.708625	-37.543109	425.269317	971.029438	-31.970115	449.890804	751.708878	-66.244815	464.529228	737.223811	-178.734351	387.831619	595.113624	-37.508720	380.462929	506.817714	-50.261086	328.931372	434.923725	-53.104876	409.908139	498.955524	-74.365316	271.729071	316.785638	-72.729708	201.731168	296.820442	-103.724997	493.169872	185.584565	-120.445673	377.624006	209.067639	-44.276124	404.096283	221.908103	-158.684357	409.228167	1077.266895	-465.291410	474.278032	1020.128954	-471.015414	502.391421	1037.731722	-457.839579	501.728234	935.618974	-478.915293	563.444674	821.630627	-471.408651	556.287729	798.038211	-345.844129	407.873919	737.349835	-487.158572	350.815902	677.656082	-464.000044	264.312950	651.976385	-453.773106	369.758559	651.972389	-442.260411	153.548651	595.793188	-428.945771	85.668679	624.161882	-380.093881	234.453455	355.273619	-355.409758	181.735393	436.046960	-318.106639	155.338493	438.885661	-436.014153	-219.268168	944.220697	-235.187546	-14.323659	80.862443	-437.194773	-14.396750	80.479774	-37.022809	
1252	6.2600	827.745131	1361.615084	-92.773450	804.459474	1391.091789	-416.154603	775.648541	1470.367855	-241.353060	750.121605	1293.872648	-252.796660	635.161003	1205.163496	90.870033	742.333340	977.122995	-2.079560	641.975970	1211.503062	-580.961434	729.920994	970.320184	-475.983866	202.101630	1291.023823	-239.604866	382.305261	1293.703435	-415.505137	369.643472	1279.749998	-50.256969	387.579027	1215.973848	-370.458194	384.417743	1207.433417	-95.688178	237.462500	1332.984092	-189.919386	244.743559	1337.226235	-273.137363	283.264482	1178.824936	-43.765072	324.913430	1200.683059	-438.414440	332.607359	1020.507481	-27.212377	387.712724	950.753755	-26.884902	404.169256	867.196670	-37.603105	421.121992	966.231189	-31.608228	441.751225	746.952035	-66.558178	457.049543	731.178824	-177.698262	380.820651	590.176573	-37.765094	374.305012	501.765661	-50.134042	323.433711	429.365162	-52.727509	403.789652	494.150741	-74.426701	266.884154	310.952764	-72.328114	196.595124	292.315910	-103.296246	485.932407	175.263298	-120.644853	370.934966	201.067209	-44.415511	397.550915	213.809277	-158.639800	411.932723	1080.917476	-465.267667	477.931452	1024.760554	-470.762841	505.922234	1042.306040	-454.931011	506.713850	940.789106	-479.361603	569.554064	826.583217	-472.039368	562.479952	802.622038	-346.023851	413.780809	742.717488	-486.787996	355.959177	683.962188	-463.899140	269.226309	659.185225	-453.600568	374.658518	658.268551	-441.869310	157.844461	603.901479	-428.715241	88.756626	630.900799	-379.861995	243.309902	365.273717	-355.374732	189.397060	444.694301	-318.247333	162.559168	447.306663	-435.940306	-219.310392	944.191753	-235.219754	-14.322626	80.859116	-437.204406	-14.448502	80.487069	-37.157988	
1253	6.2650	828.122672	1362.412612	-94.993640	803.547634	1391.969296	-418.478612	775.021248	1471.217222	-243.669853	750.101866	1294.501884	-254.904775	636.389416	1205.927528	89.741271	743.125122	976.749503	-1.182421	641.587091	1211.127948	-582.682857	729.983522	970.193493	-476.027288	202.322601	1289.759077	-237.787833	380.973027	1293.461381	-414.863568	371.571694	1278.691992	-50.061592	387.786138	1216.151068	-369.760327	386.559181	1206.517811	-95.286463	237.824068	1331.683260	-188.035670	244.569838	1336.128309	-273.887495	283.359626	1176.364091	-43.143698	325.512526	1202.228661	-437.399675	329.884487	1018.118658	-26.842484	383.374127	947.128114	-26.637284	397.925627	863.335345	-37.252045	417.182743	961.840179	-31.275259	433.636738	742.565845	-66.842798	448.871707	725.839635	-177.509875	373.586642	585.701662	-37.840985	367.841203	497.184063	-49.939035	317.510663	424.301812	-52.410700	397.322480	489.704367	-74.406896	261.591196	305.712819	-71.910971	191.461184	288.900035	-102.806204	478.131611	166.119114	-120.066123	363.859203	193.732463	-44.342926	390.588906	206.181861	-158.648111	414.411891	1084.470561	-464.964732	481.340562	1029.327545	-470.522212	508.888558	1047.205179	-454.264225	511.344338	945.869368	-479.681575	575.453051	831.582513	-472.691290	568.675662	807.539279	-346.892180	419.653757	748.141933	-486.878565	361.289394	689.988510	-463.676147	274.323487	666.033897	-453.306014	379.720892	664.286017	-441.357450	162.499189	611.484027	-428.437296	92.292063	636.966864	-379.607409	252.534254	374.624850	-355.214918	196.335913	452.546491	-318.306107	170.302212	455.212138	-435.861800	-219.366034	944.153418	-235.258451	-14.315705	80.829523	-437.198440	-14.414061	80.506768	-37.145539	
1254	6.2700	828.482939	1364.204605	-94.216100	802.583140	1392.792057	-420.947156	774.526614	1471.919273	-246.319035	750.038765	1295.202247	-257.216058	637.626206	1206.792454	88.528942	743.917463	976.474823	-0.544969	641.175442	1210.732286	-584.546564	729.966792	970.228266	-476.555349	202.808999	1288.951829	-235.409623	379.462339	1293.407569	-414.190260	373.537059	1277.666381	-49.799468	388.010107	1216.592913	-369.187218	388.755177	1205.806080	-95.217826	238.277899	1330.520760	-185.965568	244.289343	1335.344618	-271.814373	283.718325	1174.191812	-42.630236	325.891078	1203.857948	-436.407026	327.345325	1016.086128	-26.430784	379.280141	943.915480	-26.353676	391.938859	859.874366	-37.020991	413.365529	957.895962	-31.001293	425.332829	738.677955	-67.019538	440.494419	720.931964	-177.367193	366.206154	581.668614	-37.806346	361.029618	493.034306	-49.638809	311.210851	419.872476	-51.985720	390.467715	485.674288	-74.245388	255.974997	301.067720	-71.635071	185.987057	286.160090	-102.118398	469.936614	157.008017	-120.086789	356.402162	186.937571	-44.213520	383.146109	199.090735	-158.577660	416.640108	1088.038950	-464.778150	484.488148	1034.178522	-470.930616	511.585147	1051.920002	-453.596057	515.579967	950.878950	-479.971264	581.273650	836.595491	-473.105666	574.730971	812.614204	-347.017342	425.519669	753.487357	-486.875429	366.739530	695.813591	-463.294119	279.623373	672.520565	-452.874932	385.009004	670.227457	-440.827364	167.464689	618.487426	-428.020493	96.142210	642.420916	-379.392525	262.144355	383.805352	-355.318950	204.223010	460.280507	-318.362380	178.389311	462.607590	-435.781051	-219.433722	944.146982	-235.299884	-14.329215	80.822531	-437.213234	-14.335155	80.359236	-36.714323	
1255	6.2750	828.995744	1364.248388	-99.800186	801.647914	1393.363026	-423.486966	774.120862	1472.471746	-249.004102	749.866017	1295.721128	-259.477040	639.014158	1207.675781	87.297512	744.647153	976.283792	-0.307512	640.843931	1210.431393	-586.465917	729.967634	970.303519	-477.096902	203.135701	1288.057337	-233.240145	377.820690	1293.563782	-413.600385	375.770135	1276.885505	-49.554646	388.222986	1217.222383	-368.735735	390.905785	1205.310366	-95.322888	239.333915	1329.166738	-184.092987	244.321207	1335.284679	-261.296896	284.349093	1172.273346	-42.128331	326.205192	1205.921800	-436.314473	325.013151	1014.330876	-25.981361	375.363183	941.093633	-26.057581	386.277495	856.817236	-36.914446	409.709773	954.446374	-30.734847	417.049660	735.302709	-67.111245	431.598188	717.192540	-177.837589	358.949446	578.057154	-37.876160	353.765750	489.204809	-49.421397	304.562760	415.982484	-51.346500	383.142183	481.885614	-74.071120	250.051028	296.801906	-71.391967	180.392546	283.964642	-101.533179	461.271816	148.478988	-120.257166	348.652610	180.728363	-44.062246	375.413674	192.770581	-158.411139	418.532936	1091.494264	-464.733436	487.276381	1038.914209	-471.757629	513.963894	1056.624733	-453.547895	519.335724	955.726999	-480.295757	586.915787	841.555932	-473.518299	581.090763	818.055463	-347.294888	431.332648	758.668199	-486.769267	372.344631	701.484616	-462.897216	285.118173	678.569290	-452.445688	390.451554	675.898557	-440.238093	172.841346	624.818010	-427.614400	100.537144	647.157216	-379.297010	272.026953	392.026601	-355.186087	212.497953	467.437386	-318.375307	187.201109	469.669103	-436.232042	-219.506115	944.132586	-235.321757	-14.333920	80.828985	-437.221886	-14.291499	80.422631	-36.736882	
1256	6.2800	829.375992	1365.081815	-102.400143	800.762634	1393.734734	-425.986383	773.745321	1473.090352	-251.677366	749.607673	1296.224371	-261.831160	640.490090	1208.685616	85.995302	745.272120	976.259565	-0.589098	640.357830	1210.019349	-588.546088	730.039221	970.427485	-477.668079	203.426084	1287.230229	-230.979066	376.252284	1293.944083	-413.121358	378.042527	1276.190201	-49.370657	388.309531	1218.011254	-368.485254	392.937580	1204.881260	-95.692230	239.888887	1328.379886	-181.896263	244.430317	1334.488486	-261.135549	285.301446	1170.626087	-41.584760	326.137337	1207.721681	-435.481803	322.870311	1012.885674	-25.533139	372.062375	938.660650	-25.684082	380.834321	854.175537	-36.781733	406.329402	951.243833	-30.547589	408.781627	732.361889	-67.175177	422.635384	713.800856	-177.817453	351.359765	575.037303	-37.649347	346.598508	486.121361	-48.889624	297.772316	412.628800	-50.647189	376.051512	478.815445	-73.508301	244.072819	293.257021	-70.705121	174.345357	281.720077	-101.582374	452.228103	140.381515	-120.567774	340.597255	174.948468	-43.936937	367.386002	186.951068	-158.170368	420.025879	1094.860608	-464.914968	489.418294	1043.231482	-472.091482	515.869155	1061.174439	-453.804190	522.578654	960.453666	-480.709470	592.481755	846.500141	-473.762799	586.860226	822.825195	-346.919259	437.254153	763.716858	-486.477995	378.143317	706.742022	-462.361132	290.808362	684.104676	-451.936833	396.141329	681.233141	-439.622109	178.678021	630.739644	-427.446300	105.186408	651.210050	-378.918655	282.787682	400.582137	-356.524353	221.188570	473.918313	-318.135217	195.972327	475.838417	-436.193632	-219.588951	944.123361	-235.330410	-14.350129	80.828957	-437.221496	-14.327896	80.417195	-36.792579	
